<?xml version="1.0" encoding="UTF-8" standalone="no"?>
<svg
   xmlns:dc="http://purl.org/dc/elements/1.1/"
   xmlns:cc="http://creativecommons.org/ns#"
   xmlns:rdf="http://www.w3.org/1999/02/22-rdf-syntax-ns#"
   xmlns:svg="http://www.w3.org/2000/svg"
   xmlns="http://www.w3.org/2000/svg"
   width="160.82646mm"
   height="72.686607mm"
   viewBox="0 0 160.82646 72.686606"
   version="1.1"
   id="svg8">
  <defs
     id="defs2" />
  <metadata
     id="metadata5">
    <rdf:RDF>
      <cc:Work
         rdf:about="">
        <dc:format>image/svg+xml</dc:format>
        <dc:type
           rdf:resource="http://purl.org/dc/dcmitype/StillImage" />
        <dc:title></dc:title>
      </cc:Work>
    </rdf:RDF>
  </metadata>
  <g
     id="layer1"
     transform="translate(262.92255,-205.09979)">
    <path
       style="fill:none;stroke:#ffcc00;stroke-width:5.88873;stroke-linecap:square;stroke-linejoin:miter;stroke-miterlimit:6.9;stroke-dasharray:none;stroke-opacity:1"
       d="m -222.57878,252.21302 14.16226,-0.15633 6.40067,-32.20705 8.52551,40.84856 4.58741,-32.46052 7.36055,0.14781"
       id="path936" />
    <g
       aria-label="SO ORA"
       transform="scale(0.96102487,1.0405558)"
       id="text862"
       style="font-style:normal;font-weight:normal;font-size:54.4434px;line-height:1.25;font-family:sans-serif;letter-spacing:-5.30465px;fill:#6c6753;fill-opacity:1;stroke:none;stroke-width:1.3611">
      <path
         d="m -245.00617,233.50976 c 0,-6.91431 -4.19214,-9.96315 -11.37867,-12.14088 -5.98878,-1.85108 -7.67652,-2.83106 -7.67652,-5.22657 0,-2.44995 2.23218,-3.70215 5.60767,-3.70215 3.04883,0 6.09766,1.03443 8.6565,3.15772 l 4.19214,-4.84546 c -3.2666,-3.10328 -7.73096,-4.89991 -13.50196,-4.89991 -7.83985,0 -14.20973,4.02881 -14.20973,10.99757 0,5.71655 3.32105,9.0376 12.19532,11.75977 5.22657,1.57886 6.80543,2.8855 6.80543,5.60767 0,2.93994 -2.50722,4.49327 -6.26099,4.62769 -3.1688,0.11347 -5.68427,-0.56679 -7.96944,-2.10899 l -5.03916,6.23621 c 19.37029,10.2741 28.57941,-2.38503 28.57941,-9.46267 z"
         style="font-style:normal;font-variant:normal;font-weight:bold;font-stretch:normal;font-family:'Fira Mono for Powerline';-inkscape-font-specification:'Fira Mono for Powerline Bold';letter-spacing:-5.30465px;fill:#6c6753;fill-opacity:1;stroke-width:1.3611"
         id="path1013" />
      <path
         d="m -217.36945,225.66991 c 0,-12.24977 -5.17212,-19.8174 -15.08082,-19.8174 -9.9087,0 -15.08082,7.83985 -15.08082,19.8174 0,12.24976 5.17212,19.8174 15.08082,19.8174 9.9087,0 15.08082,-7.83985 15.08082,-19.8174 z m -9.14649,0 c 0,9.14649 -1.57886,13.28419 -5.93433,13.28419 -4.19214,0 -5.93433,-4.02881 -5.93433,-13.28419 0,-9.25538 1.68775,-13.28419 5.93433,-13.28419 4.24659,0 5.93433,4.02881 5.93433,13.28419 z"
         style="letter-spacing:-5.30465px;fill:#6c6753;fill-opacity:1;stroke-width:1.3611"
         id="path1015" />
      <path
         d="m -162.68919,225.66991 c 0,-12.24977 -5.17213,-19.8174 -15.08082,-19.8174 -9.9087,0 -15.08083,7.83985 -15.08083,19.8174 0,12.24976 5.17213,19.8174 15.08083,19.8174 9.90869,0 15.08082,-7.83985 15.08082,-19.8174 z m -9.14649,0 c 0,9.14649 -1.57886,13.28419 -5.93433,13.28419 -4.19215,0 -5.93434,-4.02881 -5.93434,-13.28419 0,-9.25538 1.68775,-13.28419 5.93434,-13.28419 4.24658,0 5.93433,4.02881 5.93433,13.28419 z"
         style="font-style:normal;font-variant:normal;font-weight:bold;font-stretch:normal;font-family:'Fira Mono for Powerline';-inkscape-font-specification:'Fira Mono for Powerline Bold';letter-spacing:-5.30465px;fill:#6c6753;fill-opacity:1;stroke-width:1.3611"
         id="path1017" />
      <path
         d="m -136.22016,218.32005 c 0,-7.83985 -5.22657,-11.48756 -15.51637,-11.48756 h -11.86866 v 37.72928 h 8.92872 v -14.4275 h 2.50439 l 8.16651,14.4275 h 10.12648 l -9.85426,-15.89748 c 4.19214,-1.68774 7.51319,-4.95435 7.51319,-10.34424 z m -9.20094,0 c 0,3.97437 -2.06884,5.66211 -5.93433,5.66211 h -3.32104 v -10.88868 h 2.93994 c 4.19214,0 6.31543,1.57886 6.31543,5.22657 z"
         style="font-style:normal;font-variant:normal;font-weight:bold;font-stretch:normal;font-family:'Fira Mono for Powerline';-inkscape-font-specification:'Fira Mono for Powerline Bold';letter-spacing:-5.30465px;fill:#6c6753;fill-opacity:1;stroke-width:1.3611"
         id="path1019" />
      <path
         d="m -117.64543,236.39526 2.37514,8.12762 9.03362,-0.10243 -11.40876,-37.58796 h -10.83424 l -11.542,37.72928 h 9.36427 l 1.95996,-8.16651 z m -9.63648,-6.42432 4.08325,-16.71413 4.08326,16.71413 z"
         style="font-style:normal;font-variant:normal;font-weight:bold;font-stretch:normal;font-family:'Fira Mono for Powerline';-inkscape-font-specification:'Fira Mono for Powerline Bold';letter-spacing:-5.30465px;fill:#6c6753;fill-opacity:1;stroke-width:1.3611"
         id="path1021" />
    </g>
  </g>
</svg>
