<?xml version="1.0" encoding="UTF-8" standalone="no"?>
<svg
   xmlns:dc="http://purl.org/dc/elements/1.1/"
   xmlns:cc="http://creativecommons.org/ns#"
   xmlns:rdf="http://www.w3.org/1999/02/22-rdf-syntax-ns#"
   xmlns:svg="http://www.w3.org/2000/svg"
   xmlns="http://www.w3.org/2000/svg"
   xmlns:sodipodi="http://sodipodi.sourceforge.net/DTD/sodipodi-0.dtd"
   xmlns:inkscape="http://www.inkscape.org/namespaces/inkscape"
   inkscape:export-ydpi="2.1099999"
   inkscape:export-xdpi="2.1099999"
   inkscape:export-filename="/Users/fbedussi/repo/personal/sonora/public/logo16.png"
   sodipodi:docname="logo.svg"
   inkscape:version="1.0beta1 (32d4812, 2019-09-19)"
   id="svg8"
   version="1.1"
   viewBox="0 0 192.54056 192.54031"
   height="192.54031mm"
   width="192.54056mm">
  <defs
     id="defs2" />
  <sodipodi:namedview
     inkscape:window-maximized="1"
     inkscape:window-y="25"
     inkscape:window-x="1440"
     inkscape:window-height="1027"
     inkscape:window-width="1920"
     showgrid="false"
     inkscape:document-rotation="0"
     inkscape:current-layer="layer1"
     inkscape:document-units="mm"
     inkscape:cy="555.54101"
     inkscape:cx="614.80828"
     inkscape:zoom="6.4961604"
     inkscape:pageshadow="2"
     inkscape:pageopacity="0.0"
     borderopacity="1.0"
     bordercolor="#666666"
     pagecolor="#ffffff"
     id="base" />
  <metadata
     id="metadata5">
    <rdf:RDF>
      <cc:Work
         rdf:about="">
        <dc:format>image/svg+xml</dc:format>
        <dc:type
           rdf:resource="http://purl.org/dc/dcmitype/StillImage" />
        <dc:title />
      </cc:Work>
    </rdf:RDF>
  </metadata>
  <g
     transform="translate(277.8609,-94.042056)"
     id="layer1"
     inkscape:groupmode="layer"
     inkscape:label="Layer 1">
    <path
       style="fill:#ffffff;stroke:#6c6753;stroke-width:7;stroke-linecap:round;stroke-miterlimit:3.5;stroke-dasharray:none;stroke-opacity:1"
       id="path1011"
       sodipodi:type="arc"
       sodipodi:cx="-181.59074"
       sodipodi:cy="190.31209"
       sodipodi:rx="91.262589"
       sodipodi:ry="91.262589"
       sodipodi:start="4.839606"
       sodipodi:end="4.8337319"
       sodipodi:open="true"
       sodipodi:arc-type="arc"
       d="M -170.01188,99.787009 A 91.262589,91.262589 0 0 1 -91.048758,201.758 91.262589,91.262589 0 0 1 -192.90368,280.87078 91.262589,91.262589 0 0 1 -272.16596,179.13215 91.262589,91.262589 0 0 1 -170.54383,99.720555" />
    <path
       d="M -170.01188,99.787009 A 91.262589,91.262589 0 0 1 -91.048758,201.758 91.262589,91.262589 0 0 1 -192.90368,280.87078 91.262589,91.262589 0 0 1 -272.16596,179.13215 91.262589,91.262589 0 0 1 -170.54383,99.720555"
       sodipodi:arc-type="arc"
       sodipodi:open="true"
       sodipodi:end="4.8337319"
       sodipodi:start="4.839606"
       sodipodi:ry="91.262589"
       sodipodi:rx="91.262589"
       sodipodi:cy="190.31209"
       sodipodi:cx="-181.59074"
       sodipodi:type="arc"
       id="path842"
       style="fill:none;stroke:#6c6753;stroke-width:7;stroke-linecap:round;stroke-miterlimit:3.5;stroke-dasharray:none;stroke-opacity:1" />
    <path
       sodipodi:open="true"
       style="fill:#6c6753;stroke:#6c6753;stroke-width:7;stroke-linecap:round;stroke-miterlimit:3.5;stroke-dasharray:none;stroke-opacity:1"
       id="path996"
       sodipodi:type="arc"
       sodipodi:cx="-181.59074"
       sodipodi:cy="190.31209"
       sodipodi:rx="91.262589"
       sodipodi:ry="91.262589"
       sodipodi:start="0.31663337"
       sodipodi:end="2.826118"
       sodipodi:arc-type="arc"
       d="m -94.864904,218.72843 a 91.262589,91.262589 0 0 1 -86.778716,62.84623 91.262589,91.262589 0 0 1 -86.70583,-62.94674" />
    <path
       inkscape:connector-curvature="0"
       id="path848"
       d="M -270.01993,218.52913 H -93.101325"
       style="fill:none;stroke:#6c6753;stroke-width:5;stroke-linecap:butt;stroke-linejoin:miter;stroke-miterlimit:4;stroke-dasharray:none;stroke-opacity:1" />
    <path
       sodipodi:nodetypes="cccccc"
       inkscape:connector-curvature="0"
       id="path936"
       d="m -222.57878,252.21302 14.16226,-0.15633 6.40067,-32.20705 8.52551,40.84856 4.58741,-32.46052 7.36055,0.14781"
       style="fill:none;stroke:#ffcc00;stroke-width:5.88873;stroke-linecap:square;stroke-linejoin:miter;stroke-miterlimit:6.9;stroke-dasharray:none;stroke-opacity:1" />
    <g
       style="font-style:normal;font-weight:normal;font-size:54.4434px;line-height:1.25;font-family:sans-serif;letter-spacing:-5.30465px;fill:#ffffff;fill-opacity:1;stroke:none;stroke-width:1.3611"
       id="text862"
       transform="scale(0.96102487,1.0405558)"
       aria-label="SO ORA">
      <path
         sodipodi:nodetypes="scssccsscssccs"
         inkscape:connector-curvature="0"
         id="path1013"
         style="font-style:normal;font-variant:normal;font-weight:bold;font-stretch:normal;font-family:'Fira Mono for Powerline';-inkscape-font-specification:'Fira Mono for Powerline Bold';letter-spacing:-5.30465px;fill:#ffffff;stroke-width:1.3611"
         d="m -245.00617,233.50976 c 0,-6.91431 -4.19214,-9.96315 -11.37867,-12.14088 -5.98878,-1.85108 -7.67652,-2.83106 -7.67652,-5.22657 0,-2.44995 2.23218,-3.70215 5.60767,-3.70215 3.04883,0 6.09766,1.03443 8.6565,3.15772 l 4.19214,-4.84546 c -3.2666,-3.10328 -7.73096,-4.89991 -13.50196,-4.89991 -7.83985,0 -14.20973,4.02881 -14.20973,10.99757 0,5.71655 3.32105,9.0376 12.19532,11.75977 5.22657,1.57886 6.80543,2.8855 6.80543,5.60767 0,2.93994 -2.50722,4.49327 -6.26099,4.62769 -3.1688,0.11347 -5.68427,-0.56679 -7.96944,-2.10899 2.94864,3.7445 4.62427,5.91435 8.31007,9.31844 9.63648,0 15.23018,-5.46726 15.23018,-12.5449 z" />
      <path
         id="path1015"
         style="letter-spacing:-5.30465px;fill:#ffffff;stroke-width:1.3611"
         d="m -217.36945,225.66991 c 0,-12.24977 -5.17212,-19.8174 -15.08082,-19.8174 -9.9087,0 -15.08082,7.83985 -15.08082,19.8174 0,12.24976 5.17212,19.8174 15.08082,19.8174 9.9087,0 15.08082,-7.83985 15.08082,-19.8174 z m -9.14649,0 c 0,9.14649 -1.57886,13.28419 -5.93433,13.28419 -4.19214,0 -5.93433,-4.02881 -5.93433,-13.28419 0,-9.25538 1.68775,-13.28419 5.93433,-13.28419 4.24659,0 5.93433,4.02881 5.93433,13.28419 z" />
      <path
         id="path1017"
         style="font-style:normal;font-variant:normal;font-weight:bold;font-stretch:normal;font-family:'Fira Mono for Powerline';-inkscape-font-specification:'Fira Mono for Powerline Bold';letter-spacing:-5.30465px;fill:#ffffff;stroke-width:1.3611"
         d="m -162.68919,225.66991 c 0,-12.24977 -5.17213,-19.8174 -15.08082,-19.8174 -9.9087,0 -15.08083,7.83985 -15.08083,19.8174 0,12.24976 5.17213,19.8174 15.08083,19.8174 9.90869,0 15.08082,-7.83985 15.08082,-19.8174 z m -9.14649,0 c 0,9.14649 -1.57886,13.28419 -5.93433,13.28419 -4.19215,0 -5.93434,-4.02881 -5.93434,-13.28419 0,-9.25538 1.68775,-13.28419 5.93434,-13.28419 4.24658,0 5.93433,4.02881 5.93433,13.28419 z" />
      <path
         id="path1019"
         style="font-style:normal;font-variant:normal;font-weight:bold;font-stretch:normal;font-family:'Fira Mono for Powerline';-inkscape-font-specification:'Fira Mono for Powerline Bold';letter-spacing:-5.30465px;fill:#ffffff;stroke-width:1.3611"
         d="m -136.22016,218.32005 c 0,-7.83985 -5.22657,-11.48756 -15.51637,-11.48756 h -11.86866 v 37.72928 h 8.92872 v -14.4275 h 2.50439 l 8.16651,14.4275 h 10.12648 l -9.85426,-15.89748 c 4.19214,-1.68774 7.51319,-4.95435 7.51319,-10.34424 z m -9.20094,0 c 0,3.97437 -2.06884,5.66211 -5.93433,5.66211 h -3.32104 v -10.88868 h 2.93994 c 4.19214,0 6.31543,1.57886 6.31543,5.22657 z" />
      <path
         sodipodi:nodetypes="ccccccccccccc"
         inkscape:connector-curvature="0"
         id="path1021"
         style="font-style:normal;font-variant:normal;font-weight:bold;font-stretch:normal;font-family:'Fira Mono for Powerline';-inkscape-font-specification:'Fira Mono for Powerline Bold';letter-spacing:-5.30465px;fill:#ffffff;stroke-width:1.3611"
         d="m -117.64543,236.39526 1.81892,7.61391 c 3.97451,-3.89063 3.98777,-4.23682 7.08686,-8.06486 l -8.90578,-29.11182 h -10.83424 l -11.542,37.72928 h 9.36427 l 1.95996,-8.16651 z m -9.63648,-6.42432 4.08325,-16.71413 4.08326,16.71413 z" />
    </g>
    <path
       d="m -146.45537,134.64077 a 18.035711,18.035711 0 0 1 15.60504,20.15192 18.035711,18.035711 0 0 1 -20.12895,15.63465 18.035711,18.035711 0 0 1 -15.66424,-20.10593 18.035711,18.035711 0 0 1 20.08289,-15.69379"
       sodipodi:arc-type="arc"
       sodipodi:open="true"
       sodipodi:end="4.8337243"
       sodipodi:start="4.839606"
       sodipodi:ry="18.035711"
       sodipodi:rx="18.035711"
       sodipodi:cy="152.53073"
       sodipodi:cx="-148.74364"
       sodipodi:type="arc"
       id="path854"
       style="fill:#ffcc00;fill-opacity:1;stroke:#000000;stroke-width:0;stroke-linecap:round;stroke-miterlimit:4;stroke-dasharray:none;stroke-opacity:1" />
    <path
       sodipodi:nodetypes="ccccccccccccccccccccc"
       inkscape:connector-curvature="0"
       d="m -109.46053,218.43368 -8.68551,-25.18111 -6.23622,17.23541 -6.45139,-24.9852 -4.40644,11.62684 -8.5692,-28.24378 -5.81003,14.07454 -7.25494,-21.69011 -8.31236,25.99021 -5.54218,-8.29576 -6.85436,17.57032 -13.47572,-42.42836 -3.16243,8.96637 -5.19117,-15.86713 -7.92502,26.08053 -4.48465,-8.34301 -7.42472,29.00219 -4.282,-8.07607 -3.55724,19.09366 -3.46706,-8.26324 -4.94853,18.32308"
       inkscape:transform-center-y="-7.7112414"
       inkscape:transform-center-x="3.1230907e-06"
       style="fill:none;stroke:#6c6753;stroke-width:5;stroke-linecap:square;stroke-miterlimit:3.5;stroke-dasharray:none;stroke-opacity:1"
       id="path846" />
    <path
       sodipodi:nodetypes="cc"
       inkscape:connector-curvature="0"
       id="path1009"
       d="m -264.87325,219.58308 c 9.47719,-15.95942 27.26948,-6.62498 29.37155,-4.56002"
       style="fill:none;fill-opacity:1;stroke:#6c6753;stroke-width:7;stroke-linecap:butt;stroke-linejoin:miter;stroke-miterlimit:4;stroke-dasharray:none;stroke-opacity:1" />
  </g>
</svg>
